<svg xmlns="http://www.w3.org/2000/svg" xmlns:xlink="http://www.w3.org/1999/xlink" zoomAndPan="magnify" viewBox="0 0 269.25 129.749996" preserveAspectRatio="xMidYMid meet" version="1.0"><defs><g/><clipPath id="76f298bbd3"><path d="M 85.859375 68.460938 L 95.816406 68.460938 L 95.816406 86.210938 L 85.859375 86.210938 Z M 85.859375 68.460938 " clip-rule="nonzero"/></clipPath><clipPath id="2d24d38bd5"><path d="M 0.859375 0.460938 L 10.816406 0.460938 L 10.816406 18.210938 L 0.859375 18.210938 Z M 0.859375 0.460938 " clip-rule="nonzero"/></clipPath><clipPath id="57e9cbe74c"><rect x="0" width="11" y="0" height="19"/></clipPath><clipPath id="9cc9774f32"><path d="M 90.839844 69.964844 L 103.308594 69.964844 L 103.308594 86.234375 L 90.839844 86.234375 Z M 90.839844 69.964844 " clip-rule="nonzero"/></clipPath><clipPath id="ba9fb7ecac"><path d="M 95.050781 69.964844 L 103.308594 69.964844 L 99.097656 86.210938 L 90.839844 86.210938 Z M 95.050781 69.964844 " clip-rule="nonzero"/></clipPath><clipPath id="3205099d00"><path d="M 0.839844 0.964844 L 13.308594 0.964844 L 13.308594 17.214844 L 0.839844 17.214844 Z M 0.839844 0.964844 " clip-rule="nonzero"/></clipPath><clipPath id="c72976264a"><path d="M 5.050781 0.964844 L 13.308594 0.964844 L 9.097656 17.210938 L 0.839844 17.210938 Z M 5.050781 0.964844 " clip-rule="nonzero"/></clipPath><clipPath id="9fe3f74894"><rect x="0" width="14" y="0" height="18"/></clipPath></defs><g fill="#000000" fill-opacity="1"><g transform="translate(15.265663, 85.115598)"><g><path d="M 19.859375 0.859375 C 16.453125 0.859375 13.425781 0.140625 10.78125 -1.296875 C 8.144531 -2.742188 6.082031 -4.738281 4.59375 -7.28125 C 3.113281 -9.820312 2.375 -12.738281 2.375 -16.03125 C 2.375 -19.320312 3.113281 -22.222656 4.59375 -24.734375 C 6.082031 -27.253906 8.144531 -29.234375 10.78125 -30.671875 C 13.425781 -32.117188 16.453125 -32.84375 19.859375 -32.84375 C 22.828125 -32.84375 25.519531 -32.300781 27.9375 -31.21875 C 30.351562 -30.144531 32.351562 -28.625 33.9375 -26.65625 C 35.519531 -24.6875 36.554688 -22.382812 37.046875 -19.75 L 28.15625 -19.75 C 27.382812 -21.375 26.285156 -22.640625 24.859375 -23.546875 C 23.441406 -24.460938 21.816406 -24.921875 19.984375 -24.921875 C 17.503906 -24.921875 15.472656 -24.097656 13.890625 -22.453125 C 12.304688 -20.804688 11.515625 -18.664062 11.515625 -16.03125 C 11.515625 -13.425781 12.304688 -11.289062 13.890625 -9.625 C 15.472656 -7.957031 17.503906 -7.125 19.984375 -7.125 C 21.929688 -7.125 23.644531 -7.640625 25.125 -8.671875 C 26.613281 -9.710938 27.679688 -11.109375 28.328125 -12.859375 L 37.359375 -12.859375 C 36.785156 -10.054688 35.695312 -7.628906 34.09375 -5.578125 C 32.488281 -3.523438 30.46875 -1.9375 28.03125 -0.8125 C 25.59375 0.300781 22.867188 0.859375 19.859375 0.859375 Z M 19.859375 0.859375 "/></g></g></g><g fill="#000000" fill-opacity="1"><g transform="translate(48.838248, 85.115598)"><g><path d="M 15.296875 0.609375 C 11.515625 0.609375 8.523438 -0.269531 6.328125 -2.03125 C 4.140625 -3.800781 3.046875 -6.234375 3.046875 -9.328125 C 3.046875 -12.285156 4.03125 -14.648438 6 -16.421875 C 7.96875 -18.191406 10.617188 -19.078125 13.953125 -19.078125 L 25.53125 -19.078125 L 25.53125 -20.53125 C 25.53125 -22.113281 24.960938 -23.382812 23.828125 -24.34375 C 22.691406 -25.300781 21.207031 -25.78125 19.375 -25.78125 C 17.875 -25.78125 16.59375 -25.429688 15.53125 -24.734375 C 14.476562 -24.046875 13.8125 -23.132812 13.53125 -22 L 4.625 -22 C 5.195312 -25.488281 6.769531 -28.164062 9.34375 -30.03125 C 11.925781 -31.90625 15.25 -32.84375 19.3125 -32.84375 C 24.101562 -32.84375 27.847656 -31.632812 30.546875 -29.21875 C 33.253906 -26.800781 34.609375 -23.476562 34.609375 -19.25 L 34.609375 0 L 27.71875 0 L 26.6875 -3.71875 C 23.882812 -0.832031 20.085938 0.609375 15.296875 0.609375 Z M 12.1875 -9.6875 C 12.1875 -8.59375 12.660156 -7.707031 13.609375 -7.03125 C 14.566406 -6.363281 15.835938 -6.03125 17.421875 -6.03125 C 19.742188 -6.03125 21.664062 -6.695312 23.1875 -8.03125 C 24.707031 -9.375 25.507812 -11.125 25.59375 -13.28125 L 16.8125 -13.28125 C 15.4375 -13.28125 14.320312 -12.953125 13.46875 -12.296875 C 12.613281 -11.648438 12.1875 -10.78125 12.1875 -9.6875 Z M 12.1875 -9.6875 "/></g></g></g><g fill="#000000" fill-opacity="1"><g transform="translate(81.435926, 85.115598)"><g><path d="M 4.625 0 L 4.625 -31.984375 L 11.515625 -31.984375 L 12.734375 -27.71875 C 13.785156 -29.226562 15.082031 -30.316406 16.625 -30.984375 C 18.175781 -31.648438 20.128906 -31.984375 22.484375 -31.984375 L 25.953125 -31.984375 L 25.953125 -23.578125 L 22.421875 -23.578125 C 19.785156 -23.578125 17.703125 -22.863281 16.171875 -21.4375 C 14.648438 -20.019531 13.890625 -17.585938 13.890625 -14.140625 L 13.890625 0 Z M 4.625 0 "/></g></g></g><g fill="#000000" fill-opacity="1"><g transform="translate(103.431461, 85.115598)"><g><path d="M 18.640625 0.859375 C 15.472656 0.859375 12.671875 0.140625 10.234375 -1.296875 C 7.796875 -2.742188 5.875 -4.738281 4.46875 -7.28125 C 3.070312 -9.820312 2.375 -12.738281 2.375 -16.03125 C 2.375 -19.320312 3.070312 -22.222656 4.46875 -24.734375 C 5.875 -27.253906 7.796875 -29.234375 10.234375 -30.671875 C 12.671875 -32.117188 15.472656 -32.84375 18.640625 -32.84375 C 20.628906 -32.84375 22.476562 -32.546875 24.1875 -31.953125 C 25.894531 -31.367188 27.441406 -30.550781 28.828125 -29.5 L 28.828125 -45.09375 L 38.078125 -45.09375 L 38.078125 0 L 31.203125 0 L 30.109375 -3.65625 C 28.679688 -2.226562 26.992188 -1.117188 25.046875 -0.328125 C 23.097656 0.460938 20.960938 0.859375 18.640625 0.859375 Z M 11.515625 -16.03125 C 11.515625 -13.425781 12.335938 -11.289062 13.984375 -9.625 C 15.628906 -7.957031 17.753906 -7.125 20.359375 -7.125 C 22.953125 -7.125 25.0625 -7.957031 26.6875 -9.625 C 28.3125 -11.289062 29.125 -13.425781 29.125 -16.03125 C 29.125 -18.625 28.3125 -20.753906 26.6875 -22.421875 C 25.0625 -24.085938 22.953125 -24.921875 20.359375 -24.921875 C 17.753906 -24.921875 15.628906 -24.085938 13.984375 -22.421875 C 12.335938 -20.753906 11.515625 -18.625 11.515625 -16.03125 Z M 11.515625 -16.03125 "/></g></g></g><g fill="#000000" fill-opacity="1"><g transform="translate(140.111582, 85.115598)"><g><path d="M 15.296875 0.609375 C 11.515625 0.609375 8.523438 -0.269531 6.328125 -2.03125 C 4.140625 -3.800781 3.046875 -6.234375 3.046875 -9.328125 C 3.046875 -12.285156 4.03125 -14.648438 6 -16.421875 C 7.96875 -18.191406 10.617188 -19.078125 13.953125 -19.078125 L 25.53125 -19.078125 L 25.53125 -20.53125 C 25.53125 -22.113281 24.960938 -23.382812 23.828125 -24.34375 C 22.691406 -25.300781 21.207031 -25.78125 19.375 -25.78125 C 17.875 -25.78125 16.59375 -25.429688 15.53125 -24.734375 C 14.476562 -24.046875 13.8125 -23.132812 13.53125 -22 L 4.625 -22 C 5.195312 -25.488281 6.769531 -28.164062 9.34375 -30.03125 C 11.925781 -31.90625 15.25 -32.84375 19.3125 -32.84375 C 24.101562 -32.84375 27.847656 -31.632812 30.546875 -29.21875 C 33.253906 -26.800781 34.609375 -23.476562 34.609375 -19.25 L 34.609375 0 L 27.71875 0 L 26.6875 -3.71875 C 23.882812 -0.832031 20.085938 0.609375 15.296875 0.609375 Z M 12.1875 -9.6875 C 12.1875 -8.59375 12.660156 -7.707031 13.609375 -7.03125 C 14.566406 -6.363281 15.835938 -6.03125 17.421875 -6.03125 C 19.742188 -6.03125 21.664062 -6.695312 23.1875 -8.03125 C 24.707031 -9.375 25.507812 -11.125 25.59375 -13.28125 L 16.8125 -13.28125 C 15.4375 -13.28125 14.320312 -12.953125 13.46875 -12.296875 C 12.613281 -11.648438 12.1875 -10.78125 12.1875 -9.6875 Z M 12.1875 -9.6875 "/></g></g></g><g fill="#000000" fill-opacity="1"><g transform="translate(172.713805, 85.115598)"><g/></g></g><g fill="#000000" fill-opacity="1"><g transform="translate(201.206536, 85.111956)"><g><path d="M 20.359375 0.859375 C 16.816406 0.859375 13.695312 0.148438 11 -1.265625 C 8.300781 -2.691406 6.1875 -4.675781 4.65625 -7.21875 C 3.132812 -9.757812 2.375 -12.695312 2.375 -16.03125 C 2.375 -19.351562 3.132812 -22.273438 4.65625 -24.796875 C 6.1875 -27.316406 8.300781 -29.285156 11 -30.703125 C 13.695312 -32.128906 16.816406 -32.84375 20.359375 -32.84375 C 23.890625 -32.84375 27.003906 -32.128906 29.703125 -30.703125 C 32.410156 -29.285156 34.515625 -27.316406 36.015625 -24.796875 C 37.515625 -22.273438 38.265625 -19.351562 38.265625 -16.03125 C 38.265625 -12.695312 37.515625 -9.757812 36.015625 -7.21875 C 34.515625 -4.675781 32.410156 -2.691406 29.703125 -1.265625 C 27.003906 0.148438 23.890625 0.859375 20.359375 0.859375 Z M 11.515625 -16.03125 C 11.515625 -13.425781 12.335938 -11.289062 13.984375 -9.625 C 15.628906 -7.957031 17.753906 -7.125 20.359375 -7.125 C 22.953125 -7.125 25.0625 -7.957031 26.6875 -9.625 C 28.3125 -11.289062 29.125 -13.425781 29.125 -16.03125 C 29.125 -18.664062 28.3125 -20.804688 26.6875 -22.453125 C 25.0625 -24.097656 22.953125 -24.921875 20.359375 -24.921875 C 17.753906 -24.921875 15.628906 -24.097656 13.984375 -22.453125 C 12.335938 -20.804688 11.515625 -18.664062 11.515625 -16.03125 Z M 11.515625 -16.03125 "/></g></g></g><g fill="#000000" fill-opacity="1"><g transform="translate(190.130794, 87.098751)"><g><path d="M 4.265625 -1.796875 L -8.1875 -31.265625 L 0.34375 -34.875 L 12.796875 -5.40625 Z M -13.453125 -40.28125 C -14.109375 -41.851562 -14.132812 -43.351562 -13.53125 -44.78125 C -12.925781 -46.207031 -11.816406 -47.265625 -10.203125 -47.953125 C -8.554688 -48.640625 -7.015625 -48.695312 -5.578125 -48.125 C -4.148438 -47.5625 -3.109375 -46.492188 -2.453125 -44.921875 C -1.785156 -43.359375 -1.75 -41.867188 -2.34375 -40.453125 C -2.9375 -39.035156 -4.054688 -37.984375 -5.703125 -37.296875 C -7.316406 -36.609375 -8.84375 -36.539062 -10.28125 -37.09375 C -11.726562 -37.65625 -12.785156 -38.71875 -13.453125 -40.28125 Z M -13.453125 -40.28125 "/></g></g></g><g clip-path="url(#76f298bbd3)"><g transform="matrix(1, 0, 0, 1, 85, 68)"><g clip-path="url(#57e9cbe74c)"><g clip-path="url(#2d24d38bd5)"><path fill="#ffffff" d="M 0.859375 0.460938 L 10.816406 0.460938 L 10.816406 18.199219 L 0.859375 18.199219 Z M 0.859375 0.460938 " fill-opacity="1" fill-rule="nonzero"/></g></g></g></g><g clip-path="url(#9cc9774f32)"><g clip-path="url(#ba9fb7ecac)"><g transform="matrix(1, 0, 0, 1, 90, 69)"><g clip-path="url(#9fe3f74894)"><g clip-path="url(#3205099d00)"><g clip-path="url(#c72976264a)"><path fill="#ff3131" d="M 0.839844 0.964844 L 13.308594 0.964844 L 13.308594 17.234375 L 0.839844 17.234375 Z M 0.839844 0.964844 " fill-opacity="1" fill-rule="nonzero"/></g></g></g></g></g></g></svg>
